<?xml version="1.0" encoding="utf-8"?>
<!-- Generator: Adobe Illustrator 18.1.1, SVG Export Plug-In . SVG Version: 6.00 Build 0)  -->
<!DOCTYPE svg PUBLIC "-//W3C//DTD SVG 1.1//EN" "http://www.w3.org/Graphics/SVG/1.1/DTD/svg11.dtd">
<svg version="1.1" id="Layer_1" xmlns="http://www.w3.org/2000/svg" xmlns:xlink="http://www.w3.org/1999/xlink" x="0px" y="0px"
	 viewBox="0 0 256 256" style="enable-background:new 0 0 256 256;" xml:space="preserve">
<style type="text/css">
	.st0{fill:#87724F;}
</style>
<g id="Your_Icon">
	<path class="st0" d="M227.3,176.8c-1.8,0-3.4,0.6-4.8,1.5L192.7,128l29.9-50.3c1.4,0.8,3,1.5,4.8,1.5c5.2,0,9.5-4.3,9.5-9.5
		c0-5.2-4.3-9.5-9.5-9.5c-5.2,0-9.5,4.3-9.5,9.5c0,0,0,0.1,0,0.1l-58.4,0.7l-28.6-51c2.9-1.6,4.9-4.6,4.9-8.2c0-5.2-4.2-9.5-9.5-9.5
		c-5.2,0-9.5,4.3-9.5,9.5c0,3.6,2,6.5,4.9,8.2l-28.6,51l-58.4-0.7c0,0,0-0.1,0-0.1c0-5.2-4.3-9.5-9.5-9.5c-5.2,0-9.5,4.3-9.5,9.5
		c0,5.2,4.2,9.5,9.5,9.5c1.8,0,3.3-0.6,4.8-1.5L59.9,128l-29.9,50.3c-1.4-0.8-3-1.5-4.8-1.5c-5.2,0-9.5,4.3-9.5,9.5
		c0,5.2,4.2,9.5,9.5,9.5c5.2,0,9.5-4.3,9.5-9.5c0,0,0-0.1,0-0.1l58.4-0.7l28.6,51c-2.9,1.6-4.9,4.6-4.9,8.2c0,5.2,4.3,9.5,9.5,9.5
		c5.2,0,9.5-4.3,9.5-9.5c0-3.6-2-6.5-4.9-8.2l28.6-51l58.4,0.7c0,0,0,0.1,0,0.1c0,5.2,4.3,9.5,9.5,9.5c5.2,0,9.5-4.3,9.5-9.5
		C236.8,181.1,232.6,176.8,227.3,176.8z"/>
</g>
<g>
</g>
<g>
</g>
<g>
</g>
<g>
</g>
<g>
</g>
<g>
</g>
</svg>
