<svg xmlns="http://www.w3.org/2000/svg" viewBox="0 0 256 141.9" enable-background="new 0 0 256 141.9"><style type="text/css">.st0{fill:#BB9D6E;}</style><path class="st0" d="M192.7 81.8c12.1-3.6 24.6-8.5 36.6-15.1 19.3-11.2 29.1.4 22 18-6.1 16.7-38.5 47.6-66.7 54.7-10.8-7.6-32-12.9-56.5-12.9-24.5.1-45.7 5.3-56.5 13-28.2-7.1-60.6-38.1-66.7-54.7-7.1-17.6 2.7-29.2 22-18 12 6.6 24.5 11.5 36.5 15.1 25.9 7.8 49.6 9.7 62 9.7h6.8c12.3-.3 35.4-2.3 60.5-9.8z"/><path class="st0" d="M157.8 3.5c10.1 5 26.4 52.4 32.8 71.8-24.3 7.1-46.5 9-58.6 9.1h-6.8c-12.1 0-34.8-1.8-59.9-9.1 6.4-19.4 22.8-66.8 32.9-71.8 11.5-5.8 21.4 3.8 29.4 4.7h-1.5c.6.1 1.3.1 1.9 0 .7.1 1.3.1 1.9 0h-1.5c8-.9 17.9-10.5 29.4-4.7zm-3.9 36.7c0-2.1-1.7-3.8-3.8-3.8-1.9 0-3.5 1.4-3.8 3.3l-11.7-1.7-5.2-10.5c1.4-.6 2.4-1.9 2.4-3.5 0-2.1-1.7-3.8-3.8-3.8-2.1 0-3.8 1.7-3.8 3.8 0 1.6 1 3 2.4 3.5l-5.2 10.5-11.8 1.7c-.2-1.9-1.8-3.3-3.8-3.3-2.1 0-3.8 1.7-3.8 3.8 0 2.1 1.7 3.8 3.8 3.8 1.3 0 2.4-.6 3.1-1.6l8.3 8.1-2.1 12.2c-.5-.2-1-.3-1.5-.3-2.1 0-3.8 1.7-3.8 3.8s1.7 3.8 3.8 3.8c2.1 0 3.8-1.7 3.8-3.8 0-.8-.2-1.5-.7-2.1l11.1-5.8 11.1 5.8c-.4.6-.7 1.4-.7 2.1 0 2.1 1.7 3.8 3.8 3.8 2.1 0 3.8-1.7 3.8-3.8s-1.7-3.8-3.8-3.8c-.5 0-1 .1-1.5.3l-2.1-12.2 8.3-8.1c.7 1 1.8 1.6 3.1 1.6 2.4 0 4.1-1.7 4.1-3.8z" id="XMLID_1_"/></svg>