<?xml version="1.0" encoding="utf-8"?>
<!-- Generator: Adobe Illustrator 18.1.1, SVG Export Plug-In . SVG Version: 6.00 Build 0)  -->
<!DOCTYPE svg PUBLIC "-//W3C//DTD SVG 1.1//EN" "http://www.w3.org/Graphics/SVG/1.1/DTD/svg11.dtd">
<svg version="1.1" id="Layer_1" xmlns="http://www.w3.org/2000/svg" xmlns:xlink="http://www.w3.org/1999/xlink" x="0px" y="0px"
	 viewBox="0 0 256 141.9" style="enable-background:new 0 0 256 141.9;" xml:space="preserve">
<style type="text/css">
	.st0{fill:#BB9D6E;}
</style>
<g>
	<path class="st0" d="M192.7,81.8C192.7,81.8,192.7,81.7,192.7,81.8c12.1-3.6,24.6-8.5,36.6-15.1c19.3-11.2,29.1,0.4,22,18
		c-6.1,16.7-38.5,47.6-66.7,54.7c-10.8-7.6-32-12.9-56.5-12.9c-24.5,0.1-45.7,5.3-56.5,13c-28.2-7.1-60.6-38.1-66.7-54.7
		c-7.1-17.6,2.7-29.2,22-18c12,6.6,24.5,11.5,36.5,15.1c25.9,7.8,49.6,9.7,62,9.7l6.8,0C144.5,91.3,167.6,89.3,192.7,81.8z"/>
	<g id="XMLID_1_">
		<path class="st0" d="M157.8,3.5c10.1,5,26.4,52.4,32.8,71.8c-24.3,7.1-46.5,9-58.6,9.1l-6.8,0c-12.1,0-34.8-1.8-59.9-9.1
			C71.7,55.9,88.1,8.5,98.2,3.5c11.5-5.8,21.4,3.8,29.4,4.7h-1.5c0.6,0.1,1.3,0.1,1.9,0c0.7,0.1,1.3,0.1,1.9,0h-1.5
			C136.4,7.3,146.3-2.3,157.8,3.5z M153.9,40.2c0-2.1-1.7-3.8-3.8-3.8c-1.9,0-3.5,1.4-3.8,3.3L134.6,38l-5.2-10.5
			c1.4-0.6,2.4-1.9,2.4-3.5c0-2.1-1.7-3.8-3.8-3.8c-2.1,0-3.8,1.7-3.8,3.8c0,1.6,1,3,2.4,3.5L121.4,38l-11.8,1.7
			c-0.2-1.9-1.8-3.3-3.8-3.3c-2.1,0-3.8,1.7-3.8,3.8c0,2.1,1.7,3.8,3.8,3.8c1.3,0,2.4-0.6,3.1-1.6l8.3,8.1l-2.1,12.2
			c-0.5-0.2-1-0.3-1.5-0.3c-2.1,0-3.8,1.7-3.8,3.8s1.7,3.8,3.8,3.8c2.1,0,3.8-1.7,3.8-3.8c0-0.8-0.2-1.5-0.7-2.1l11.1-5.8l11.1,5.8
			c-0.4,0.6-0.7,1.4-0.7,2.1c0,2.1,1.7,3.8,3.8,3.8c2.1,0,3.8-1.7,3.8-3.8s-1.7-3.8-3.8-3.8c-0.5,0-1,0.1-1.5,0.3l-2.1-12.2l8.3-8.1
			c0.7,1,1.8,1.6,3.1,1.6C152.2,44,153.9,42.3,153.9,40.2z"/>
	</g>
</g>
<g>
</g>
<g>
</g>
<g>
</g>
<g>
</g>
<g>
</g>
<g>
</g>
</svg>
