<svg xmlns="http://www.w3.org/2000/svg" viewBox="0 0 256 256" enable-background="new 0 0 256 256"><style type="text/css">.st0{fill:#87724F;}</style><path class="st0" d="M227.3 176.8c-1.8 0-3.4.6-4.8 1.5l-29.8-50.3 29.9-50.3c1.4.8 3 1.5 4.8 1.5 5.2 0 9.5-4.3 9.5-9.5s-4.3-9.5-9.5-9.5-9.5 4.3-9.5 9.5v.1l-58.4.7-28.6-51c2.9-1.6 4.9-4.6 4.9-8.2 0-5.2-4.2-9.5-9.5-9.5-5.2 0-9.5 4.3-9.5 9.5 0 3.6 2 6.5 4.9 8.2l-28.6 51-58.4-.7v-.1c0-5.2-4.3-9.5-9.5-9.5s-9.5 4.3-9.5 9.5 4.2 9.5 9.5 9.5c1.8 0 3.3-.6 4.8-1.5l29.9 50.3-29.9 50.3c-1.4-.8-3-1.5-4.8-1.5-5.2 0-9.5 4.3-9.5 9.5s4.2 9.5 9.5 9.5c5.2 0 9.5-4.3 9.5-9.5v-.1l58.4-.7 28.6 51c-2.9 1.6-4.9 4.6-4.9 8.2 0 5.2 4.3 9.5 9.5 9.5s9.5-4.3 9.5-9.5c0-3.6-2-6.5-4.9-8.2l28.6-51 58.4.7v.1c0 5.2 4.3 9.5 9.5 9.5s9.5-4.3 9.5-9.5c-.1-5.2-4.3-9.5-9.6-9.5z" id="Your_Icon"/></svg>