<svg xmlns="http://www.w3.org/2000/svg" viewBox="0 0 256 256" enable-background="new 0 0 256 256"><style type="text/css">.st0{fill:#BB9D6E;}</style><path class="st0" d="M42.9 246.5c3 .3 5.6-1.8 6.2-4.7-.3 3.2 2.1 6 5.2 6.3 3.2.3 6-2 6.3-5.2.3-3.4 1.1-12.1 1.5-15.2h.2c20.6 1.7 43.9-13.7 48.5-46.3 2-14.1-1.6-28.2-10.2-39.6-5.8-7.7-13.5-13.6-22.2-17.2.6-1.3 1.1-2.6 1.3-4.1.5-3.7-.4-7.4-2.7-10.4-2.3-3-5.6-5-9.3-5.5-6.9-1-13.6 3.4-15.5 10.1-.2.6-.3 1.3-.4 1.9-.2 1.5-.1 2.9.1 4.3-1.5.2-3 .4-4.5.7l-3.7-10c3.7-2.6 6.6-6.4 7.9-10.9.6-2.2.9-4.5.7-6.9l-1.7-25.6c-.2-2.4-.7-4.7-1.7-6.8l13.7-11.3c.3.2.6.4 1 .5 4.8 2.4 10.3 2.7 15.5 1l24.3-8.3c6.3-2.1 11.1-7.2 12.9-13.6v-.1l12-.2c2 4.9 5.8 9 11.1 11.2l23.7 9.8c4.9 2 10.3 2 15.2.1l5.3 6.8c-1.1 1.7-2 3.6-2.6 5.6-.8 2.7-1 5.5-.6 8.3l3.5 25.4c1 7.6 6.2 13.6 12.9 16.2l-.3 8.4c-17.8.6-34.9 10-44.5 26.5-3 5.2-5.2 10.4-6.7 15.4-6.4 22.3 2.1 41.6 16.2 51 .1 0 .1.1.2.2-1.7 2.7-6.3 10.1-8.1 13-1.7 2.7-.9 6.3 1.8 8 2.7 1.7 6.3.9 8-1.8-.2.4-.4.7-.5 1.1-.7 2.4.3 5.1 2.5 6.5 2.7 1.7 6.3.9 8-1.8.7-1.1 6.4-10.1 8.4-13.4.1 0 .2 0 .2.1 18.5 9.3 45.8 3.9 62.4-24.7 12.5-21.5 8.2-48.1-8.7-64.7 1.1-1 2-2 2.8-3.3.6-1 1-2.1 1.4-3.2 1.8-6.2-.9-12.8-6.5-16.1-6.7-3.9-15.4-1.6-19.3 5.1-.6 1-1 2.1-1.4 3.2-.1.3-.1.6-.2.8-1.5-.4-2.9-.8-4.4-1l.3-8.5c7.2-1.6 13-7 15-14.2.8-2.7 1-5.5.6-8.3l-3.5-25.4c-1.5-11.1-11.7-18.8-22.8-17.3-1.8.3-3.6.8-5.3 1.5l-5.2-6.5c.8-1.2 1.5-2.5 2.1-3.8 4.3-10.5-.8-22.2-11-26.4l-23.7-9.8c-5-2.1-10.5-2-15.5 0-5 2.1-8.9 6-10.9 11-.3.7-.5 1.4-.8 2.2l-.3 1.5-11.2.2-.1-.4c-1.7-5.1-5.4-9.3-10.2-11.6-4.8-2.4-10.3-2.7-15.5-1l-24.1 8c-6.3 2.1-11.1 7.2-12.9 13.6-1.1 4-1 8.1.3 12 .3 1 .7 1.9 1.2 2.7l-13.1 11c-3.6-2.4-7.9-3.5-12.3-3.2-8.6.5-15.9 6.4-18.2 14.6-.6 2.2-.9 4.5-.7 6.9l1.7 25.6c.7 10.9 10 19.2 20.8 18.9l3.6 9.8c-14.2 6.3-25.3 18.6-29.8 34.1-.7 2.3-1.2 4.7-1.5 7.2-4.6 32.6 13.5 53.9 33.8 57.9.1 0 .2 0 .3.1-.5 3.8-1.4 14.4-1.5 15.7-.4 3.2 2 6 5.2 6.3zm191.5-51.2c-9.8 16.9-29.1 29.2-47.1 20.1-5.5-2.8-12-1.2-14.9 3.5 2.7-4.9.8-11.3-4.3-14.7-16.8-11.1-15.7-34-5.9-50.9 11.6-19.9 37.2-26.7 57.1-15.2 19.9 11.6 26.7 37.3 15.1 57.2zm-10.2-70.6c.7-1.2 2.2-1.6 3.4-.9 1 .6 1.5 1.8 1.2 2.9l-.2.6c-.7 1.2-2.2 1.6-3.4.9-1.3-.7-1.7-2.3-1-3.5zm-15-57.6l3.5 25.4c.2 1.2.1 2.4-.2 3.5-.6 2-1.8 3.7-3.5 4.8l.3-8.2c.1-3.2-2.4-5.9-5.6-6-2.7-.1-5.1 1.7-5.8 4.2-.1.4-.2.9-.2 1.4l-.2 6.9c-1-1.2-1.7-2.6-1.9-4.3l-3.6-25.3c-.1-.6-.1-1.2-.1-1.8l4 5.1c2 2.5 5.6 2.9 8.1 1 2.5-2 2.9-5.6 1-8.1l-4.6-5.9c4.3-.2 8.1 2.9 8.8 7.3zm-65.4-53.2c2.1-.9 4.5-.9 6.6 0l23.7 9.8c3.7 1.5 5.8 5.4 5.2 9.3l-2.8-3.5c-2-2.5-5.6-2.9-8.1-1-1 .8-1.7 1.8-2 3-.5 1.7-.2 3.7 1 5.2l2.9 3.7c-1-.1-1.9-.2-2.8-.6l-23.7-9.8c-.5-.2-1-.5-1.4-.8l4.4-.1c3.2-.1 5.7-2.7 5.7-5.9-.1-3.2-2.7-5.7-5.9-5.7l-6.9.1c.9-1.6 2.3-2.9 4.1-3.7zm-74 10.4l24.2-8.3c2.2-.7 4.5-.6 6.6.4 1 .5 1.8 1.1 2.5 1.9l-4.6.1c-2.6.1-4.8 1.8-5.5 4.2-.2.5-.2 1.1-.2 1.7.1 3.2 2.7 5.7 5.9 5.7l4.5-.1c-1 1.1-2.2 2-3.7 2.5l-24.3 8.3c-.6.2-1.1.3-1.7.4l4.2-3.5c2.5-2 2.8-5.7.8-8.2-2-2.5-5.7-2.8-8.1-.8l-6.4 5.3c-.6-4 1.8-8.3 5.8-9.6zm-46.3 71.3l-1.7-25.6c-.3-4.7 3.4-8.9 8.1-9.2h1.4l-3.9 3.2c-.9.8-1.6 1.8-1.9 2.9-.5 1.8-.2 3.7 1.1 5.3 2 2.5 5.7 2.8 8.1.8l4.3-3.6 1.6 25c.1 1 0 2-.3 2.9-.2.8-.6 1.6-1.1 2.3l-2.1-5.6c-1.1-3-4.4-4.5-7.4-3.4-1.8.7-3.1 2.1-3.6 3.9-.3 1.1-.3 2.4.1 3.6l1.7 4.6c-2.3-1.3-4.2-3.9-4.4-7.1zm40.3 24.5c-.2-.3-.6-1-.5-1.9.2-1.4 1.5-2.3 2.8-2.1.9.1 1.4.7 1.7 1 .2.3.6 1 .5 1.9 0 .1 0 .2-.1.3-.3 1.2-1.5 2-2.8 1.8-.9-.2-1.4-.7-1.6-1zm-47.3 48c3.2-22.8 24.4-38.8 47.2-35.6 11.1 1.6 20.9 7.3 27.6 16.3 6.7 8.9 9.6 19.9 8 31-3.6 25.6-20.9 37.6-36.1 36.4-6.1-.5-11.5 3.4-12.5 8.8.6-5.5-3.5-10.7-9.6-12-19.7-3.9-27.3-25.6-24.6-44.9z" id="Your_Icon_2_"/></svg>